<?xml version="1.0" encoding="utf-8"?>
<!-- Generator: Adobe Illustrator 27.0.0, SVG Export Plug-In . SVG Version: 6.00 Build 0)  -->
<svg version="1.1" id="图层_1" xmlns="http://www.w3.org/2000/svg" xmlns:xlink="http://www.w3.org/1999/xlink" x="0px" y="0px"
	 viewBox="0 0 200 200" style="enable-background:new 0 0 200 200;" xml:space="preserve">
<style type="text/css">
	.st0{fill:#2C2C2C;}
</style>
<path class="st0" d="M89.4,134v51.4c0,5.9-6.6,9.6-11.8,6.6l-50.9-29c-9.8-5.7-15.7-15.7-15.7-27V78.2c0-6.1,6.9-9.8,12-6.6L71,101
	C82.5,108.2,89.4,120.7,89.4,134z M167.6,52.6l-48.9,29.7c-5.4,3.4-11.6,5.2-17.7,5.7c-6.1-0.5-12.3-2.2-17.7-5.7L34.3,52.6
	c-4.9-2.9-4.9-10.1,0.2-13l51.6-29c4.4-2.5,9.6-3.9,14.7-3.9c5.2,0.2,10.1,1.5,14.7,3.9l51.6,29C172.5,42.5,172.5,49.7,167.6,52.6
	L167.6,52.6z M175.2,163l-50.9,29c-5.2,2.9-11.8-0.7-11.8-6.6V134c0-13.3,6.9-25.8,18.4-32.9l47.9-29.5c5.2-3.2,12,0.5,12,6.6v58
	C190.9,147.2,184.8,157.6,175.2,163z"/>
</svg>
