<?xml version="1.0" standalone="no"?><!DOCTYPE svg PUBLIC "-//W3C//DTD SVG 1.1//EN" "http://www.w3.org/Graphics/SVG/1.1/DTD/svg11.dtd"><svg t="1741219142209" class="icon" viewBox="0 0 1024 1024" version="1.1" xmlns="http://www.w3.org/2000/svg" p-id="19861" xmlns:xlink="http://www.w3.org/1999/xlink" width="200" height="200"><path d="M928.735 896.21c16.517 0 29.907 13.385 29.907 29.895 0 16.275-13.01 29.512-29.2 29.887l-0.707 0.008H98.262c-16.517 0-29.907-13.384-29.907-29.895 0-16.274 13.01-29.511 29.2-29.886l0.707-0.008h830.473z m-50.61-73.586c16.516 0 29.906 13.384 29.906 29.894 0 16.275-13.01 29.512-29.2 29.887l-0.706 0.008h-713.15c-16.516 0-29.906-13.384-29.906-29.895 0-16.274 13.01-29.511 29.2-29.886l0.707-0.008h713.149zM309.42 430.726c16.517 0 29.906 13.384 29.906 29.895 0 16.274-13.01 29.511-29.2 29.886l-0.706 0.008h-42.074v253.922h42.074c16.517 0 29.906 13.385 29.906 29.895 0 16.275-13.01 29.512-29.2 29.887l-0.706 0.008h-144.5c-16.516 0-29.905-13.384-29.905-29.895 0-16.274 13.01-29.511 29.2-29.886l0.706-0.009h42.612V490.515h-42.612c-16.517 0-29.906-13.384-29.906-29.894 0-16.275 13.01-29.512 29.2-29.887l0.706-0.008H309.42z m276.111 0c16.517 0 29.907 13.384 29.907 29.895 0 16.274-13.01 29.511-29.2 29.886l-0.707 0.008h-42.074v253.922h42.074c16.517 0 29.907 13.385 29.907 29.895 0 16.275-13.01 29.512-29.2 29.887l-0.707 0.008H441.033c-16.516 0-29.906-13.384-29.906-29.895 0-16.274 13.01-29.511 29.2-29.886l0.706-0.009h42.612V490.515h-42.612c-16.516 0-29.906-13.384-29.906-29.894 0-16.275 13.01-29.512 29.2-29.887l0.706-0.008h144.5z m269.157 0c16.516 0 29.906 13.384 29.906 29.895 0 16.274-13.01 29.511-29.2 29.886l-0.706 0.008h-42.075v253.922h42.075c16.516 0 29.906 13.385 29.906 29.895 0 16.275-13.01 29.512-29.2 29.887l-0.706 0.008h-144.5c-16.516 0-29.906-13.384-29.906-29.895 0-16.274 13.01-29.511 29.2-29.886l0.707-0.009h42.612V490.515H710.19c-16.517 0-29.907-13.384-29.907-29.894 0-16.275 13.01-29.512 29.2-29.887l0.707-0.008h144.499zM552.899 77.348L944.19 349.332c15.647 10.876 19.51 32.372 8.63 48.013a34.511 34.511 0 0 1-28.33 14.801H102.507C83.45 412.146 68 396.703 68 377.652a34.49 34.49 0 0 1 14.807-28.32l391.29-271.984c23.686-16.464 55.117-16.464 78.802 0z" fill="#5b778e" p-id="19862"></path></svg>