<?xml version="1.0" standalone="no"?><!DOCTYPE svg PUBLIC "-//W3C//DTD SVG 1.1//EN" "http://www.w3.org/Graphics/SVG/1.1/DTD/svg11.dtd"><svg t="1741221341917" class="icon" viewBox="0 0 1024 1024" version="1.1" xmlns="http://www.w3.org/2000/svg" p-id="21639" xmlns:xlink="http://www.w3.org/1999/xlink" width="200" height="200"><path d="M677.977066 397.337067a138.864599 138.864599 0 0 1-42.218619-82.861917l-18.510029-141.85771a15.753216 15.753216 0 0 0-23.157227-11.814912l-125.631898 68.368957c-28.040725 15.28062-60.49235 20.479181-91.920015 14.571725l-140.597453-26.229104a15.753216 15.753216 0 0 0-18.352497 18.431262l26.229105 140.597453c5.82869 31.427666 0.630129 63.800525-14.650491 91.920016l-68.368958 125.631898a15.753216 15.753216 0 0 0 11.814912 23.157227l141.85771 18.510029c31.663964 4.174602 60.88618 19.061391 82.783151 42.218619l98.4576 103.813694a15.753216 15.753216 0 0 0 25.598976-4.01707l61.516308-129.176372c13.705298-28.828385 36.862525-51.985613 65.690911-65.769677l129.176372-61.437542a15.753216 15.753216 0 0 0 4.095836-25.677742L677.977066 397.337067z m1.339024 297.105654L561.088203 942.870937a32.136561 32.136561 0 0 1-52.143145 8.270439L319.748934 751.469363a32.057795 32.057795 0 0 0-19.061392-9.688228L27.920607 706.021335a32.057795 32.057795 0 0 1-24.023655-47.102116l131.539354-241.575568a32.057795 32.057795 0 0 0 3.308176-21.188076l-50.410292-270.403953a32.057795 32.057795 0 0 1 37.413888-37.413888l270.403954 50.410291a32.057795 32.057795 0 0 0 21.188075-3.308175L658.915675 3.900496a32.057795 32.057795 0 0 1 47.102116 24.023655l35.681034 272.766935a32.057795 32.057795 0 0 0 9.688228 19.061392l199.672013 189.196124a32.136561 32.136561 0 0 1-8.270438 52.143145l-248.349451 118.14912a32.057795 32.057795 0 0 0-15.123087 15.201854z m80.341401 140.676219a53.403402 53.403402 0 0 1 75.457905-75.536671l151.073342 151.073342a53.403402 53.403402 0 1 1-75.615437 75.615437l-150.994576-151.152108z" fill="#1296db" fill-opacity=".9" p-id="21640"></path></svg>