<?xml version="1.0" standalone="no"?><!DOCTYPE svg PUBLIC "-//W3C//DTD SVG 1.1//EN" "http://www.w3.org/Graphics/SVG/1.1/DTD/svg11.dtd"><svg t="1741248584878" class="icon" viewBox="0 0 1024 1024" version="1.1" xmlns="http://www.w3.org/2000/svg" p-id="2896" xmlns:xlink="http://www.w3.org/1999/xlink" width="200" height="200"><path d="M259.748 623.26v279.015h-160V752.736l160-129.477z m138.996-84.493l49.951 61.641a45.56 45.56 0 0 0 5.111 8.17l0.514 0.643 10.966 13.533a45.418 45.418 0 0 0 22.462 14.984v264.537h-160V596.22l70.996-57.452z m316.004-63.287v426.795h-160V604.96l160-129.48z m228-152.67v579.465h-160V452.29l160-129.48z m1.213-200.698a28.871 28.871 0 0 1 16.756 7.228c6.144 5.317 10.03 13.172 10.03 21.935 0 2.387-0.288 4.707-0.832 6.927l-9.964 113.874c-1.395 15.956-15.461 27.758-31.417 26.363-15.955-1.396-27.758-15.462-26.362-31.418l2.424-27.705-391.449 316.86a38.985 38.985 0 0 1-7.321 7.812l-0.015 0.012c-12.882 10.427-30.394 11.298-43.955 3.514a38.8 38.8 0 0 1-12.233-10.016 39.162 39.162 0 0 1-3.818-5.65l-54.97-67.849-273.35 221.264c-16.724 13.538-41.255 10.96-54.8-5.757-13.537-16.707-10.967-41.224 5.74-54.761l0.014-0.012 301.638-244.16a38.79 38.79 0 0 1 19.307-8.336c13.885-2.954 28.892 1.808 38.441 13.594l58.332 71.997 367.598-297.553h-22.007c-16.017 0-29-12.983-29-29 0-16.016 12.983-29 29-29h105.667a29.092 29.092 0 0 1 6.546-0.163z" fill="#333333" p-id="2897"></path></svg>