<?xml version="1.0" standalone="no"?><!DOCTYPE svg PUBLIC "-//W3C//DTD SVG 1.1//EN" "http://www.w3.org/Graphics/SVG/1.1/DTD/svg11.dtd"><svg t="1741226470577" class="icon" viewBox="0 0 1024 1024" version="1.1" xmlns="http://www.w3.org/2000/svg" p-id="2638" xmlns:xlink="http://www.w3.org/1999/xlink" width="200" height="200"><path d="M600.649143 575.049143L250.441143 272.384s-0.877714 5.339429 46.372571 57.782857c73.142857 81.334857 230.765714 220.013714 303.835429 295.350857 36.059429 37.156571 24.868571 50.614857 25.014857 50.468572L200.411429 423.643429l-25.014858-50.468572h-25.014857s-36.278857-28.452571-50.029714-50.468571C62.171429 261.997714 75.337143 222.061714 75.337143 222.061714l50.029714 25.161143-25.014857-75.629714s91.721143-50.468571 200.118857 50.468571l4.169143 12.580572c7.094857 21.504 45.860571 63.049143 45.860571 63.049143l-25.014857-100.937143 100.059429 100.937143 61.732571 37.010285V196.754286L500.589714 146.285714 950.857143 297.618286C896.877714 810.496 500.589714 877.714286 500.589714 877.714286L100.352 675.913143l200.118857-151.332572 62.171429 14.994286L204.361143 671.451429l302.153143 120.32s339.748571-45.714286 355.474285-464.310858l-319.926857-103.131428v120.393143l-41.472 3.437714 100.059429 226.962286z" fill="#2c2c2c" p-id="2639"></path></svg>