<?xml version="1.0" standalone="no"?><!DOCTYPE svg PUBLIC "-//W3C//DTD SVG 1.1//EN" "http://www.w3.org/Graphics/SVG/1.1/DTD/svg11.dtd"><svg t="1741226537091" class="icon" viewBox="0 0 1204 1024" version="1.1" xmlns="http://www.w3.org/2000/svg" p-id="3884" xmlns:xlink="http://www.w3.org/1999/xlink" width="235.15625" height="200"><path d="M0 391.529412a150.588235 150.588235 0 1 0 301.176471 0 150.588235 150.588235 0 0 0-301.176471 0zM903.529412 572.235294a150.588235 150.588235 0 1 0 301.17647 0 150.588235 150.588235 0 0 0-301.17647 0zM602.352941 180.705882a180.705882 180.705882 0 1 0 361.411765 0 180.705882 180.705882 0 0 0-361.411765 0zM240.941176 843.294118a180.705882 180.705882 0 1 0 361.411765 0 180.705882 180.705882 0 0 0-361.411765 0z" fill="#2c2c2c" p-id="3885"></path><path d="M384.481882 676.683294L260.517647 490.134588c-19.998118 22.889412-47.887059 39.514353-79.811765 46.140236L304.670118 722.823529c21.443765-21.504 48.790588-37.767529 79.811764-46.140235zM650.541176 335.811765l-182.874352 337.498353c31.924706 5.903059 60.656941 19.877647 83.847529 39.514353l183.717647-339.245177a189.44 189.44 0 0 1-84.690824-37.767529zM1024 426.827294L922.202353 301.176471a180.585412 180.585412 0 0 1-70.957177 57.645176l97.761883 120.771765A143.36 143.36 0 0 1 1024 426.827294z" fill="#2c2c2c" opacity=".35" p-id="3886"></path></svg>