<?xml version="1.0" standalone="no"?><!DOCTYPE svg PUBLIC "-//W3C//DTD SVG 1.1//EN" "http://www.w3.org/Graphics/SVG/1.1/DTD/svg11.dtd"><svg t="1741240896524" class="icon" viewBox="0 0 1024 1024" version="1.1" xmlns="http://www.w3.org/2000/svg" p-id="41729" xmlns:xlink="http://www.w3.org/1999/xlink" width="200" height="200"><path d="M362.038166 347.527689l-55.155889 280.793621a68.192737 68.192737 0 0 1 35.008035 35.281536l291.095465-21.697689a82.961752 82.961752 0 0 1 12.125179-28.899863l-273.50028-268.577275a45.036379 45.036379 0 0 1-9.57251 3.09967zM676.654655 387.18523L401.239873 331.208839l264.383604 260.736934a81.32075 81.32075 0 0 1 33.458201-13.492681L714.944694 446.717124a67.919236 67.919236 0 0 1-38.290039-59.531894z" fill="#323333" p-id="41730"></path><path d="M512.007487 0a511.992524 511.992524 0 1 0 511.992524 511.901358A511.901358 511.901358 0 0 0 512.007487 0z m246.970753 452.095963L743.47989 583.467264a80.956083 80.956083 0 1 1-107.120943 102.744939l-291.186631 21.697689a67.828069 67.828069 0 1 1-67.372236-85.240921l54.700056-280.884788a41.298542 41.298542 0 1 1 62.722731-41.845543l286.810627 58.164393a67.919236 67.919236 0 1 1 76.488912 93.99293z" fill="#323333" p-id="41731"></path></svg>