<?xml version="1.0" standalone="no"?><!DOCTYPE svg PUBLIC "-//W3C//DTD SVG 1.1//EN" "http://www.w3.org/Graphics/SVG/1.1/DTD/svg11.dtd"><svg t="1741237171843" class="icon" viewBox="0 0 1024 1024" version="1.1" xmlns="http://www.w3.org/2000/svg" p-id="28165" xmlns:xlink="http://www.w3.org/1999/xlink" width="200" height="200"><path d="M0 0h1024v1024H0z" fill="#0B82FF" fill-opacity="0" p-id="28166"></path><path d="M893.662609 152.932174L532.925217 25.822609a63.376696 63.376696 0 0 0-41.805913 0L130.337391 152.932174A61.506783 61.506783 0 0 0 89.043478 210.854957v388.652521C89.043478 856.108522 512 1001.73913 512 1001.73913s422.956522-145.630609 422.956522-402.209391V210.743652c0-26.000696-16.473043-49.129739-41.293913-57.833739z m-95.788522 190.018783l-249.232696 181.203478-25.065739 243.645217c-2.137043 21.014261-21.014261 21.014261-23.151304 0l-25.065739-243.645217-249.099131-181.203478c-14.246957-12.688696 5.164522-31.098435 24.041739-22.750609l242.42087 127.109565a41.360696 41.360696 0 0 0 38.533565 0l242.576696-127.109565c18.743652-8.347826 38.266435 10.061913 24.041739 22.750609z" fill="#000000" p-id="28167"></path></svg>