<?xml version="1.0" standalone="no"?><!DOCTYPE svg PUBLIC "-//W3C//DTD SVG 1.1//EN" "http://www.w3.org/Graphics/SVG/1.1/DTD/svg11.dtd"><svg t="1741237307523" class="icon" viewBox="0 0 1024 1024" version="1.1" xmlns="http://www.w3.org/2000/svg" p-id="29193" xmlns:xlink="http://www.w3.org/1999/xlink" width="200" height="200"><path d="M515.49791 241.013183a27.513987 27.513987 0 0 1-30.109646-30.109646V30.245659c0-22.322669 7.786977-30.109646 30.109646-30.109646a27.513987 27.513987 0 0 1 30.109647 30.109646v180.657878a32.186174 32.186174 0 0 1-30.109647 30.109646zM515.49791 1023.863987a27.513987 27.513987 0 0 1-30.109646-30.109646v-180.657878a28.033119 28.033119 0 0 1 30.109646-30.109646 32.705305 32.705305 0 0 1 30.109647 30.109646v180.657878a32.186174 32.186174 0 0 1-30.109647 30.109646zM210.767524 538.475723H30.109646a30.109646 30.109646 0 1 1 0-60.219292h180.657878a30.109646 30.109646 0 0 1 0 60.219292zM993.618329 538.475723h-180.657878a30.109646 30.109646 0 1 1 0-60.219292h180.657878a30.109646 30.109646 0 1 1 0 60.219292zM301.096463 331.342122c-7.267846 0-15.054823-7.267846-22.322669-14.535691L150.548232 191.176527a33.743569 33.743569 0 0 1 0-35.300965 28.033119 28.033119 0 0 1 45.164469 0l128.225563 124.072509a33.743569 33.743569 0 0 1 0 36.85836c-7.786977 7.267846-15.054823 14.535691-22.841801 14.535691zM854.490997 882.660129c-7.267846 0-15.054823 0-15.054823-7.786978l-128.225563-129.263826a28.033119 28.033119 0 0 1 0-45.16447 33.743569 33.743569 0 0 1 37.896624 0L877.332798 830.746946a28.033119 28.033119 0 0 1 0 45.164469 27.513987 27.513987 0 0 1-22.841801 7.786978zM175.985691 882.660129a25.43746 25.43746 0 0 1-20.246141-9.344373 28.033119 28.033119 0 0 1 0-42.56881l125.629904-127.706431a44.645338 44.645338 0 0 1 44.126205 0 51.913183 51.913183 0 0 1 0 45.164469l-127.187299 125.110772a25.956592 25.956592 0 0 1-22.322669 7.786977zM726.784566 331.342122a16.093087 16.093087 0 0 1-15.573955-14.535691 20.765273 20.765273 0 0 1 0-36.85836L839.436174 155.875562a21.803537 21.803537 0 0 1 37.896624 0 20.765273 20.765273 0 0 1 0 36.858361L749.107235 316.806431c-7.267846 7.267846-15.054823 14.535691-22.322669 14.535691z" fill="#2c2c2c" p-id="29194"></path></svg>